<svg width="331" height="40" viewBox="0 0 331 40" fill="none" xmlns="http://www.w3.org/2000/svg">
<path d="M2 2V25.9842" stroke="url(#paint0_linear_90_99)" stroke-width="4" stroke-linecap="round"/>
<path d="M23 15.1284V32.8559" stroke="url(#paint1_linear_90_99)" stroke-width="4" stroke-linecap="round"/>
<path d="M44 18.2568V29.7275" stroke="url(#paint2_linear_90_99)" stroke-width="4" stroke-linecap="round"/>
<path d="M68.75 37.5962V7.56494H76.25V37.5962H68.75ZM58.7188 17.2837C58.4271 13.7837 58.6042 10.3983 59.25 7.12744L65.3125 9.84619L61.7812 17.2837H58.7188ZM59.7812 11.1899L59.25 7.12744H85.75L84.6562 11.1899H59.7812ZM83.2188 17.2837L79.6875 9.84619L85.75 7.12744C86.3958 10.3983 86.5729 13.7837 86.2812 17.2837H83.2188ZM65.3125 38.0649L65.5312 35.3149C66.1354 35.0649 66.8125 34.8462 67.5625 34.6587C68.3333 34.4712 69.125 34.3149 69.9375 34.1899L68.75 37.2837V32.3774H76.25V37.2837L75.1562 34.3774L79.8125 35.2524L79.5938 38.0649H65.3125ZM91.1875 37.8774V17.8774L98.4375 19.4712V37.8774H91.1875ZM88.5625 38.0649L88.7812 35.4399C89.3646 35.1483 89.9479 34.9087 90.5312 34.7212C91.1354 34.5337 91.7396 34.367 92.3438 34.2212L91.1875 37.2837V32.3774H98.4375V37.2837L97.4062 34.5649L102.688 35.3774L102.469 38.0649H88.5625ZM96.3125 22.8774L95.6875 21.6274C96.8542 18.7941 98.1042 16.7524 99.4375 15.5024C100.792 14.2524 102.417 13.6274 104.312 13.6274C104.604 13.6274 104.875 13.6483 105.125 13.6899C105.375 13.7108 105.594 13.7524 105.781 13.8149L105.312 19.5024C104.771 19.3983 104.229 19.3254 103.688 19.2837C103.146 19.242 102.698 19.2212 102.344 19.2212C101.135 19.2212 100.062 19.5129 99.125 20.0962C98.1875 20.6587 97.25 21.5858 96.3125 22.8774ZM91.1875 21.9712V17.9712L92.4375 20.0962L88.125 17.7212L88.3125 15.5962C89.4375 15.0962 90.6979 14.6795 92.0938 14.3462C93.5104 14.0129 94.9583 13.7837 96.4375 13.6587L98.1875 19.2524L91.1875 21.9712ZM117.812 38.5962C112.5 38.5962 109.844 36.1587 109.844 31.2837V17.1274L117.094 17.4712V30.2837C117.094 31.617 117.333 32.5858 117.812 33.1899C118.292 33.7941 119.062 34.0962 120.125 34.0962C122.479 34.0962 124.812 33.1691 127.125 31.3149L127.719 33.6587C124.927 36.9504 121.625 38.5962 117.812 38.5962ZM109.844 21.9712V17.9712L111.094 19.3774L107.375 17.2837L107.594 14.9087C109.635 14.1379 112.135 13.7212 115.094 13.6587H117.094V18.6274L109.844 21.9712ZM131.656 36.2212L124.406 34.9712V17.1899L131.656 17.5024V36.2212ZM124.406 21.9712V17.9712L125.656 19.4087L121.656 17.1899L121.844 15.0024C122.885 14.6066 124.083 14.2941 125.438 14.0649C126.792 13.8149 128.198 13.6795 129.656 13.6587H131.656V18.6274L124.406 21.9712ZM126.406 38.2212L124.906 33.7212L131.656 32.1274V36.1587L130.531 34.0962L134.219 35.1899L134 37.8149C132.125 38.1274 129.594 38.2629 126.406 38.2212ZM145.531 38.5649C142.219 38.5649 139.417 37.8149 137.125 36.3149C136.917 35.3358 136.771 34.2733 136.688 33.1274C136.604 31.9816 136.594 30.8254 136.656 29.6587H139.969L142.844 35.0337L140.875 33.4087C142.458 34.4295 144.177 34.9399 146.031 34.9399C148.344 34.9399 149.5 34.1483 149.5 32.5649C149.5 31.3774 148.552 30.492 146.656 29.9087L143.531 28.9399C139.135 27.5858 136.938 25.0962 136.938 21.4712C136.938 19.0129 137.812 17.0649 139.562 15.6274C141.333 14.1691 143.708 13.4399 146.688 13.4399C149.396 13.4399 151.885 13.992 154.156 15.0962C154.552 16.8879 154.719 18.9191 154.656 21.1899H151.219L148.344 15.8149L151.344 18.5337C149.552 17.5545 147.833 17.0649 146.188 17.0649C144.271 17.0649 143.312 17.7733 143.312 19.1899C143.312 20.3983 144.333 21.3149 146.375 21.9399L149.5 22.9087C151.771 23.617 153.417 24.5962 154.438 25.8462C155.479 27.0754 156 28.5545 156 30.2837C156 32.8045 155.052 34.8149 153.156 36.3149C151.281 37.8149 148.74 38.5649 145.531 38.5649ZM168.469 38.4399C163.344 38.4399 160.781 36.0962 160.781 31.4087V16.1587L161.062 13.9399L162.938 7.93994H168.031V30.4712C168.031 31.742 168.26 32.6587 168.719 33.2212C169.198 33.7837 169.958 34.0649 171 34.0649C171.938 34.0649 173.135 33.8879 174.594 33.5337L174.344 37.1587C172.865 38.0129 170.906 38.4399 168.469 38.4399ZM157.406 17.8774L157.625 15.0649C158.667 14.6066 159.812 14.2316 161.062 13.9399H174.438L174.125 17.8774H157.406Z" fill="#FF1F00"/>
<path d="M205.882 38.6889C204.842 38.6889 204.098 38.3929 203.65 37.8009C203.202 37.1929 202.978 36.3049 202.978 35.1369C202.978 33.9689 203.354 31.2809 204.106 27.0729H203.722C202.746 28.3529 201.938 29.8809 201.298 31.6569C200.658 33.4329 200.266 35.0329 200.122 36.4569C199.338 37.1929 198.434 37.5609 197.41 37.5609C196.994 37.5609 196.626 37.4169 196.306 37.1289C196.002 36.8249 195.698 36.3049 195.394 35.5689C194.802 34.0809 194.378 31.2489 194.122 27.0729H193.738C192.954 30.5129 192.562 32.9369 192.562 34.3449C192.562 35.7529 192.802 36.8409 193.282 37.6089C192.322 38.3289 191.322 38.6889 190.282 38.6889C189.242 38.6889 188.498 38.3929 188.05 37.8009C187.602 37.1929 187.378 36.2969 187.378 35.1129C187.378 33.9129 187.882 30.5289 188.89 24.9609L187.618 22.3929C189.426 21.2249 191.074 20.6409 192.562 20.6409C193.218 20.6409 193.77 20.7129 194.218 20.8569C194.682 20.9849 195.122 21.2409 195.538 21.6249C195.97 22.0089 196.322 22.5449 196.594 23.2329C197.218 24.7849 197.666 27.0489 197.938 30.0249H198.226C199.058 27.5769 200.21 25.4729 201.682 23.7129C202.482 22.7689 203.434 22.0249 204.538 21.4809C205.658 20.9369 206.866 20.6649 208.162 20.6649C209.394 20.6649 210.01 21.4089 210.01 22.8969C210.01 23.3929 209.698 25.2409 209.074 28.4409C208.466 31.6249 208.162 33.5209 208.162 34.1289C208.162 35.6809 208.402 36.8409 208.882 37.6089C207.922 38.3289 206.922 38.6889 205.882 38.6889ZM221.053 35.1129L220.813 34.9929C220.381 36.1449 219.757 37.0489 218.941 37.7049C218.141 38.3449 217.245 38.6649 216.253 38.6649C214.893 38.6649 213.805 38.1529 212.989 37.1289C212.173 36.1049 211.765 34.7369 211.765 33.0249C211.765 30.3689 212.653 28.1449 214.429 26.3529C216.221 24.5609 218.445 23.6649 221.101 23.6649C221.789 23.6649 222.421 23.7289 222.997 23.8569C223.093 24.3049 223.149 24.6969 223.165 25.0329C223.965 24.5209 224.789 24.2649 225.637 24.2649C226.805 24.2649 227.389 24.8969 227.389 26.1609C227.389 26.6089 227.133 27.9609 226.621 30.2169C226.125 32.4729 225.877 34.1449 225.877 35.2329C225.877 36.3209 226.125 37.0729 226.621 37.4889C225.725 38.2729 224.789 38.6649 223.813 38.6649C222.853 38.6649 222.149 38.3769 221.701 37.8009C221.269 37.2249 221.053 36.3289 221.053 35.1129ZM216.277 31.8489C216.277 32.6329 216.437 33.2409 216.757 33.6729C217.093 34.0889 217.565 34.2969 218.173 34.2969C218.781 34.2969 219.381 34.0729 219.973 33.6249C220.565 33.1769 221.061 32.5609 221.461 31.7769C221.605 30.1609 221.917 28.2489 222.397 26.0409C220.781 26.0409 219.357 26.6249 218.125 27.7929C216.893 28.9609 216.277 30.3129 216.277 31.8489ZM229.797 35.6889C229.797 35.0489 229.957 33.8089 230.277 31.9689C230.613 30.1289 230.957 28.4489 231.309 26.9289L230.061 25.0089C232.061 24.1129 233.461 23.6649 234.261 23.6649C235.077 23.6649 235.485 24.1769 235.485 25.2009C235.485 25.7609 235.221 26.9289 234.693 28.7049L234.933 28.8249C236.085 25.3849 237.517 23.6649 239.229 23.6649C240.013 23.6649 240.613 23.9049 241.029 24.3849C241.445 24.8649 241.653 25.4009 241.653 25.9929C241.653 26.8729 241.325 27.6249 240.669 28.2489C240.013 28.8729 239.029 29.1849 237.717 29.1849C235.733 29.1849 234.741 31.2249 234.741 35.3049C234.741 36.2969 234.909 37.0249 235.245 37.4889C234.253 38.2729 233.341 38.6649 232.509 38.6649C230.701 38.6649 229.797 37.6729 229.797 35.6889ZM244.636 23.1369L243.292 21.2169C245.292 20.0489 246.868 19.4649 248.02 19.4649C248.676 19.4649 249.14 19.6009 249.412 19.8729C249.684 20.1289 249.82 20.5689 249.82 21.1929C249.82 21.8009 249.716 22.6569 249.508 23.7609C249.316 24.8649 249.052 26.1689 248.716 27.6729C248.396 29.1769 248.164 30.3849 248.02 31.2969L249.532 29.9529C249.676 29.8249 249.908 29.6249 250.228 29.3529C250.564 29.0649 250.796 28.8569 250.924 28.7289C251.068 28.6009 251.26 28.4249 251.5 28.2009C251.74 27.9609 251.916 27.7609 252.028 27.6009C252.14 27.4409 252.268 27.2569 252.412 27.0489C252.636 26.6969 252.748 26.3049 252.748 25.8729C252.748 25.4249 252.684 25.0329 252.556 24.6969C253.692 24.0089 254.764 23.6649 255.772 23.6649C256.444 23.6649 256.98 23.8809 257.38 24.3129C257.78 24.7289 257.98 25.3369 257.98 26.1369C257.98 26.9369 257.612 27.7449 256.876 28.5609C256.156 29.3609 255.26 30.0649 254.188 30.6729C254.684 32.3209 255.324 33.8329 256.108 35.2089C256.892 36.5849 257.548 37.4089 258.076 37.6809C257.436 38.3369 256.444 38.6649 255.1 38.6649C254.108 38.6649 253.268 38.3289 252.58 37.6569C251.908 36.9849 251.308 35.8809 250.78 34.3449L250.18 32.6409L247.708 33.8649C247.692 34.0409 247.684 34.3049 247.684 34.6569C247.684 35.9849 247.932 36.9289 248.428 37.4889C247.308 38.2729 246.292 38.6649 245.38 38.6649C244.468 38.6649 243.796 38.3689 243.364 37.7769C242.948 37.1689 242.74 36.3369 242.74 35.2809C242.74 34.2249 243.036 32.0649 243.628 28.8009C244.22 25.5369 244.556 23.6489 244.636 23.1369ZM266.491 38.6649C264.299 38.6649 262.603 38.0969 261.403 36.9609C260.219 35.8249 259.627 34.2889 259.627 32.3529C259.627 29.7769 260.507 27.6889 262.267 26.0889C264.043 24.4729 266.267 23.6649 268.939 23.6649C270.427 23.6649 271.555 24.0009 272.323 24.6729C273.091 25.3289 273.475 26.2009 273.475 27.2889C273.475 28.7769 272.747 30.0169 271.291 31.0089C269.851 31.9849 267.619 32.4809 264.595 32.4969C264.643 33.5209 264.875 34.3289 265.291 34.9209C265.707 35.4969 266.227 35.7849 266.851 35.7849C267.475 35.7849 268.011 35.5769 268.459 35.1609C268.923 34.7449 269.155 34.0649 269.155 33.1209C271.491 33.1209 272.659 33.6729 272.659 34.7769C272.659 35.7209 272.083 36.6089 270.931 37.4409C269.779 38.2569 268.299 38.6649 266.491 38.6649ZM268.531 26.4729C267.715 26.4729 266.963 26.8809 266.275 27.6969C265.603 28.5129 265.115 29.4729 264.811 30.5769C266.411 30.4489 267.611 30.0889 268.411 29.4969C269.227 28.8889 269.635 28.2489 269.635 27.5769C269.635 27.2569 269.531 26.9929 269.323 26.7849C269.131 26.5769 268.867 26.4729 268.531 26.4729ZM275.928 29.4009C275.816 28.9529 275.76 28.5369 275.76 28.1529C275.76 27.3689 275.992 26.7769 276.456 26.3769C276.92 25.9769 277.52 25.7769 278.256 25.7769C278.256 24.9449 278.04 24.0409 277.608 23.0649C278.392 22.4889 279.104 22.0569 279.744 21.7689C280.4 21.4649 281.088 21.3129 281.808 21.3129C282.528 21.3129 283.024 21.4489 283.296 21.7209C283.584 21.9769 283.728 22.3769 283.728 22.9209C283.728 23.4649 283.616 24.3129 283.392 25.4649C284.032 25.3689 284.68 25.2329 285.336 25.0569C285.448 25.3929 285.504 25.8249 285.504 26.3529C285.504 26.8809 285.296 27.3769 284.88 27.8409C284.48 28.2889 283.888 28.5129 283.104 28.5129H282.744C282.168 31.1209 281.88 33.1289 281.88 34.5369C281.88 35.9449 282.128 36.9289 282.624 37.4889C281.728 38.2729 280.776 38.6649 279.768 38.6649C278.76 38.6649 278.032 38.3689 277.584 37.7769C277.152 37.1689 276.936 36.2329 276.936 34.9689C276.936 34.2009 277.216 32.1849 277.776 28.9209C277.136 29.0329 276.52 29.1929 275.928 29.4009Z" fill="#052C15"/>
<defs>
<linearGradient id="paint0_linear_90_99" x1="2" y1="13.9921" x2="3" y2="13.9921" gradientUnits="userSpaceOnUse">
<stop stop-color="#EC008C"/>
<stop offset="1" stop-color="#FC6767"/>
</linearGradient>
<linearGradient id="paint1_linear_90_99" x1="23" y1="23.9921" x2="24" y2="23.9921" gradientUnits="userSpaceOnUse">
<stop stop-color="#E65C00"/>
<stop offset="1" stop-color="#F9D423"/>
</linearGradient>
<linearGradient id="paint2_linear_90_99" x1="-nan" y1="-nan" x2="-nan" y2="-nan" gradientUnits="userSpaceOnUse">
<stop stop-color="#00D2FF"/>
<stop offset="1" stop-color="#3A7BD5"/>
</linearGradient>
</defs>
</svg>
